<?xml version="1.0" encoding="UTF-8"?>
<svg xmlns="http://www.w3.org/2000/svg" xmlns:xlink="http://www.w3.org/1999/xlink" width="1920" height="1080" viewBox="0 0 1920 1080">
<defs>
<g>
<g id="glyph-0-0">
<path d="M 0.394531 0 L 0.394531 -3.578125 L 1.980469 -3.578125 C 2.300781 -3.578125 2.542969 -3.546875 2.707031 -3.484375 C 2.875 -3.417969 3.007812 -3.304688 3.105469 -3.140625 C 3.203125 -2.980469 3.253906 -2.800781 3.253906 -2.601562 C 3.253906 -2.347656 3.171875 -2.132812 3.007812 -1.960938 C 2.84375 -1.785156 2.589844 -1.675781 2.246094 -1.628906 C 2.371094 -1.566406 2.464844 -1.507812 2.53125 -1.449219 C 2.671875 -1.324219 2.800781 -1.164062 2.925781 -0.972656 L 3.546875 0 L 2.953125 0 L 2.476562 -0.746094 C 2.339844 -0.960938 2.226562 -1.125 2.136719 -1.238281 C 2.046875 -1.351562 1.964844 -1.429688 1.894531 -1.476562 C 1.824219 -1.523438 1.753906 -1.554688 1.679688 -1.570312 C 1.625 -1.582031 1.539062 -1.589844 1.414062 -1.589844 L 0.867188 -1.589844 L 0.867188 0 L 0.394531 0 M 0.867188 -2 L 1.882812 -2 C 2.101562 -2 2.269531 -2.023438 2.390625 -2.066406 C 2.515625 -2.113281 2.609375 -2.183594 2.671875 -2.28125 C 2.734375 -2.378906 2.765625 -2.488281 2.765625 -2.601562 C 2.765625 -2.773438 2.703125 -2.910156 2.582031 -3.019531 C 2.457031 -3.128906 2.265625 -3.183594 2 -3.183594 L 0.867188 -3.183594 Z "/>
</g>
<g id="glyph-0-1">
<path d="M 0.164062 -1.296875 C 0.164062 -1.777344 0.300781 -2.132812 0.566406 -2.363281 C 0.789062 -2.554688 1.0625 -2.652344 1.382812 -2.652344 C 1.738281 -2.652344 2.03125 -2.535156 2.257812 -2.300781 C 2.480469 -2.066406 2.59375 -1.746094 2.59375 -1.332031 C 2.59375 -1 2.546875 -0.738281 2.445312 -0.546875 C 2.34375 -0.355469 2.199219 -0.207031 2.007812 -0.101562 C 1.816406 0.00390625 1.609375 0.0585938 1.382812 0.0585938 C 1.019531 0.0585938 0.726562 -0.0585938 0.5 -0.289062 C 0.277344 -0.523438 0.164062 -0.859375 0.164062 -1.296875 M 0.617188 -1.296875 C 0.617188 -0.964844 0.691406 -0.714844 0.835938 -0.550781 C 0.980469 -0.386719 1.164062 -0.304688 1.382812 -0.304688 C 1.601562 -0.304688 1.78125 -0.386719 1.925781 -0.550781 C 2.070312 -0.71875 2.144531 -0.972656 2.144531 -1.3125 C 2.144531 -1.632812 2.070312 -1.875 1.925781 -2.039062 C 1.78125 -2.203125 1.597656 -2.289062 1.382812 -2.289062 C 1.164062 -2.289062 0.980469 -2.207031 0.835938 -2.039062 C 0.691406 -1.875 0.617188 -1.628906 0.617188 -1.296875 Z "/>
</g>
<g id="glyph-0-2">
<path d="M 0.332031 0 L 0.332031 -3.578125 L 0.773438 -3.578125 L 0.773438 -1.539062 L 1.8125 -2.59375 L 2.378906 -2.59375 L 1.390625 -1.632812 L 2.480469 0 L 1.9375 0 L 1.082031 -1.324219 L 0.773438 -1.027344 L 0.773438 0 Z "/>
</g>
<g id="glyph-0-3">
<path d="M 0.332031 -3.074219 L 0.332031 -3.578125 L 0.773438 -3.578125 L 0.773438 -3.074219 L 0.332031 -3.074219 M 0.332031 0 L 0.332031 -2.59375 L 0.773438 -2.59375 L 0.773438 0 Z "/>
</g>
<g id="glyph-0-4">
<path d="M 2.105469 -0.835938 L 2.558594 -0.777344 C 2.488281 -0.511719 2.355469 -0.308594 2.160156 -0.160156 C 1.96875 -0.015625 1.71875 0.0585938 1.417969 0.0585938 C 1.039062 0.0585938 0.738281 -0.0585938 0.515625 -0.292969 C 0.292969 -0.523438 0.183594 -0.851562 0.183594 -1.273438 C 0.183594 -1.710938 0.296875 -2.050781 0.519531 -2.289062 C 0.746094 -2.53125 1.035156 -2.652344 1.394531 -2.652344 C 1.742188 -2.652344 2.023438 -2.535156 2.242188 -2.296875 C 2.464844 -2.0625 2.574219 -1.730469 2.574219 -1.300781 C 2.574219 -1.273438 2.574219 -1.234375 2.570312 -1.183594 L 0.636719 -1.183594 C 0.652344 -0.898438 0.734375 -0.679688 0.878906 -0.53125 C 1.023438 -0.378906 1.203125 -0.304688 1.421875 -0.304688 C 1.582031 -0.304688 1.71875 -0.34375 1.832031 -0.429688 C 1.949219 -0.515625 2.039062 -0.648438 2.105469 -0.835938 M 0.660156 -1.546875 L 2.109375 -1.546875 C 2.089844 -1.761719 2.035156 -1.925781 1.945312 -2.035156 C 1.804688 -2.207031 1.621094 -2.289062 1.398438 -2.289062 C 1.195312 -2.289062 1.027344 -2.222656 0.890625 -2.085938 C 0.753906 -1.953125 0.675781 -1.773438 0.660156 -1.546875 Z "/>
</g>
</g>
</defs>
<g fill="rgb(66.666667%, 66.666667%, 66.666667%)" fill-opacity="1">
<use xlink:href="#glyph-0-0" x="30" y="24.526367"/>
<use xlink:href="#glyph-0-1" x="34" y="24.526367"/>
<use xlink:href="#glyph-0-1" x="37" y="24.526367"/>
<use xlink:href="#glyph-0-2" x="40" y="24.526367"/>
<use xlink:href="#glyph-0-3" x="43" y="24.526367"/>
<use xlink:href="#glyph-0-4" x="44" y="24.526367"/>
</g>
</svg>
