<?xml version="1.0" encoding="UTF-8"?>
<svg xmlns="http://www.w3.org/2000/svg" xmlns:xlink="http://www.w3.org/1999/xlink" width="1920" height="1080" viewBox="0 0 1920 1080">
<defs>
<g>
<g id="glyph-0-0">
<path d="M 1.617188 0 L 1.617188 -0.855469 L 0.0625 -0.855469 L 0.0625 -1.257812 L 1.695312 -3.578125 L 2.054688 -3.578125 L 2.054688 -1.257812 L 2.539062 -1.257812 L 2.539062 -0.855469 L 2.054688 -0.855469 L 2.054688 0 L 1.617188 0 M 1.617188 -1.257812 L 1.617188 -2.875 L 0.496094 -1.257812 Z "/>
</g>
<g id="glyph-0-1">
<path d="M 0.0351562 0 L 0.984375 -1.347656 L 0.109375 -2.59375 L 0.65625 -2.59375 L 1.054688 -1.984375 C 1.128906 -1.871094 1.191406 -1.773438 1.234375 -1.695312 C 1.308594 -1.800781 1.371094 -1.898438 1.433594 -1.980469 L 1.871094 -2.59375 L 2.394531 -2.59375 L 1.5 -1.371094 L 2.464844 0 L 1.921875 0 L 1.390625 -0.804688 L 1.25 -1.023438 L 0.570312 0 Z "/>
</g>
<g id="glyph-0-2">
</g>
<g id="glyph-0-3">
<path d="M 0.394531 0 L 0.394531 -3.578125 L 1.980469 -3.578125 C 2.300781 -3.578125 2.542969 -3.546875 2.707031 -3.484375 C 2.875 -3.417969 3.007812 -3.304688 3.105469 -3.140625 C 3.203125 -2.980469 3.253906 -2.800781 3.253906 -2.601562 C 3.253906 -2.347656 3.171875 -2.132812 3.007812 -1.960938 C 2.84375 -1.785156 2.589844 -1.675781 2.246094 -1.628906 C 2.371094 -1.566406 2.464844 -1.507812 2.53125 -1.449219 C 2.671875 -1.324219 2.800781 -1.164062 2.925781 -0.972656 L 3.546875 0 L 2.953125 0 L 2.476562 -0.746094 C 2.339844 -0.960938 2.226562 -1.125 2.136719 -1.238281 C 2.046875 -1.351562 1.964844 -1.429688 1.894531 -1.476562 C 1.824219 -1.523438 1.753906 -1.554688 1.679688 -1.570312 C 1.625 -1.582031 1.539062 -1.589844 1.414062 -1.589844 L 0.867188 -1.589844 L 0.867188 0 L 0.394531 0 M 0.867188 -2 L 1.882812 -2 C 2.101562 -2 2.269531 -2.023438 2.390625 -2.066406 C 2.515625 -2.113281 2.609375 -2.183594 2.671875 -2.28125 C 2.734375 -2.378906 2.765625 -2.488281 2.765625 -2.601562 C 2.765625 -2.773438 2.703125 -2.910156 2.582031 -3.019531 C 2.457031 -3.128906 2.265625 -3.183594 2 -3.183594 L 0.867188 -3.183594 Z "/>
</g>
<g id="glyph-0-4">
<path d="M 2.105469 -0.835938 L 2.558594 -0.777344 C 2.488281 -0.511719 2.355469 -0.308594 2.160156 -0.160156 C 1.96875 -0.015625 1.71875 0.0585938 1.417969 0.0585938 C 1.039062 0.0585938 0.738281 -0.0585938 0.515625 -0.292969 C 0.292969 -0.523438 0.183594 -0.851562 0.183594 -1.273438 C 0.183594 -1.710938 0.296875 -2.050781 0.519531 -2.289062 C 0.746094 -2.53125 1.035156 -2.652344 1.394531 -2.652344 C 1.742188 -2.652344 2.023438 -2.535156 2.242188 -2.296875 C 2.464844 -2.0625 2.574219 -1.730469 2.574219 -1.300781 C 2.574219 -1.273438 2.574219 -1.234375 2.570312 -1.183594 L 0.636719 -1.183594 C 0.652344 -0.898438 0.734375 -0.679688 0.878906 -0.53125 C 1.023438 -0.378906 1.203125 -0.304688 1.421875 -0.304688 C 1.582031 -0.304688 1.71875 -0.34375 1.832031 -0.429688 C 1.949219 -0.515625 2.039062 -0.648438 2.105469 -0.835938 M 0.660156 -1.546875 L 2.109375 -1.546875 C 2.089844 -1.761719 2.035156 -1.925781 1.945312 -2.035156 C 1.804688 -2.207031 1.621094 -2.289062 1.398438 -2.289062 C 1.195312 -2.289062 1.027344 -2.222656 0.890625 -2.085938 C 0.753906 -1.953125 0.675781 -1.773438 0.660156 -1.546875 Z "/>
</g>
<g id="glyph-0-5">
<path d="M 0.25 0.214844 L 0.675781 0.277344 C 0.695312 0.410156 0.742188 0.507812 0.824219 0.566406 C 0.933594 0.648438 1.082031 0.6875 1.273438 0.6875 C 1.476562 0.6875 1.632812 0.648438 1.742188 0.566406 C 1.855469 0.484375 1.929688 0.371094 1.96875 0.226562 C 1.992188 0.136719 2 -0.0546875 2 -0.339844 C 1.808594 -0.113281 1.566406 0 1.28125 0 C 0.925781 0 0.648438 -0.128906 0.453125 -0.386719 C 0.257812 -0.644531 0.160156 -0.953125 0.160156 -1.3125 C 0.160156 -1.558594 0.207031 -1.785156 0.296875 -1.996094 C 0.386719 -2.203125 0.515625 -2.367188 0.683594 -2.480469 C 0.855469 -2.59375 1.054688 -2.652344 1.285156 -2.652344 C 1.589844 -2.652344 1.84375 -2.527344 2.039062 -2.28125 L 2.039062 -2.59375 L 2.445312 -2.59375 L 2.445312 -0.351562 C 2.445312 0.0507812 2.40625 0.339844 2.324219 0.507812 C 2.242188 0.675781 2.109375 0.808594 1.933594 0.90625 C 1.753906 1.003906 1.535156 1.050781 1.273438 1.050781 C 0.964844 1.050781 0.714844 0.984375 0.523438 0.84375 C 0.335938 0.703125 0.242188 0.496094 0.25 0.214844 M 0.613281 -1.34375 C 0.613281 -1.003906 0.679688 -0.753906 0.816406 -0.597656 C 0.949219 -0.441406 1.121094 -0.363281 1.324219 -0.363281 C 1.523438 -0.363281 1.695312 -0.441406 1.832031 -0.597656 C 1.96875 -0.753906 2.035156 -0.996094 2.035156 -1.328125 C 2.035156 -1.644531 1.964844 -1.882812 1.824219 -2.046875 C 1.683594 -2.207031 1.515625 -2.289062 1.316406 -2.289062 C 1.121094 -2.289062 0.953125 -2.207031 0.816406 -2.050781 C 0.679688 -1.890625 0.613281 -1.65625 0.613281 -1.34375 Z "/>
</g>
<g id="glyph-0-6">
<path d="M 2.027344 0 L 2.027344 -0.382812 C 1.828125 -0.0859375 1.554688 0.0585938 1.207031 0.0585938 C 1.054688 0.0585938 0.910156 0.0273438 0.777344 -0.03125 C 0.644531 -0.0859375 0.546875 -0.160156 0.480469 -0.25 C 0.417969 -0.339844 0.371094 -0.449219 0.347656 -0.578125 C 0.328125 -0.664062 0.320312 -0.800781 0.320312 -0.984375 L 0.320312 -2.59375 L 0.757812 -2.59375 L 0.757812 -1.15625 C 0.757812 -0.925781 0.769531 -0.769531 0.785156 -0.691406 C 0.8125 -0.574219 0.871094 -0.484375 0.960938 -0.417969 C 1.050781 -0.351562 1.164062 -0.320312 1.292969 -0.320312 C 1.425781 -0.320312 1.550781 -0.355469 1.664062 -0.421875 C 1.78125 -0.488281 1.863281 -0.582031 1.910156 -0.695312 C 1.957031 -0.8125 1.984375 -0.980469 1.984375 -1.203125 L 1.984375 -2.59375 L 2.421875 -2.59375 L 2.421875 0 Z "/>
</g>
<g id="glyph-0-7">
<path d="M 0.320312 0 L 0.320312 -3.578125 L 0.757812 -3.578125 L 0.757812 0 Z "/>
</g>
<g id="glyph-0-8">
<path d="M 2.023438 -0.320312 C 1.859375 -0.179688 1.703125 -0.0820312 1.550781 -0.0273438 C 1.402344 0.03125 1.238281 0.0585938 1.066406 0.0585938 C 0.78125 0.0585938 0.5625 -0.0117188 0.410156 -0.148438 C 0.257812 -0.289062 0.179688 -0.46875 0.179688 -0.683594 C 0.179688 -0.8125 0.210938 -0.925781 0.265625 -1.03125 C 0.324219 -1.136719 0.402344 -1.21875 0.496094 -1.285156 C 0.589844 -1.347656 0.695312 -1.394531 0.8125 -1.429688 C 0.898438 -1.449219 1.027344 -1.472656 1.203125 -1.492188 C 1.554688 -1.535156 1.816406 -1.585938 1.984375 -1.644531 C 1.988281 -1.707031 1.988281 -1.742188 1.988281 -1.761719 C 1.988281 -1.9375 1.945312 -2.066406 1.863281 -2.140625 C 1.75 -2.238281 1.582031 -2.289062 1.363281 -2.289062 C 1.15625 -2.289062 1.003906 -2.25 0.90625 -2.179688 C 0.804688 -2.105469 0.734375 -1.976562 0.6875 -1.792969 L 0.257812 -1.851562 C 0.296875 -2.035156 0.359375 -2.183594 0.449219 -2.296875 C 0.539062 -2.410156 0.667969 -2.5 0.835938 -2.558594 C 1.007812 -2.621094 1.203125 -2.652344 1.425781 -2.652344 C 1.648438 -2.652344 1.828125 -2.625 1.964844 -2.574219 C 2.105469 -2.519531 2.207031 -2.457031 2.269531 -2.375 C 2.335938 -2.296875 2.382812 -2.199219 2.40625 -2.078125 C 2.421875 -2.003906 2.429688 -1.867188 2.429688 -1.671875 L 2.429688 -1.085938 C 2.429688 -0.679688 2.4375 -0.417969 2.457031 -0.3125 C 2.476562 -0.203125 2.511719 -0.0976562 2.570312 0 L 2.109375 0 C 2.0625 -0.0898438 2.035156 -0.199219 2.023438 -0.320312 M 1.984375 -1.300781 C 1.824219 -1.234375 1.585938 -1.179688 1.265625 -1.136719 C 1.085938 -1.109375 0.957031 -1.078125 0.882812 -1.046875 C 0.808594 -1.015625 0.75 -0.96875 0.710938 -0.90625 C 0.667969 -0.84375 0.648438 -0.773438 0.648438 -0.695312 C 0.648438 -0.578125 0.695312 -0.480469 0.78125 -0.402344 C 0.871094 -0.324219 1 -0.285156 1.171875 -0.285156 C 1.339844 -0.285156 1.492188 -0.324219 1.625 -0.398438 C 1.753906 -0.472656 1.851562 -0.570312 1.914062 -0.699219 C 1.960938 -0.800781 1.984375 -0.945312 1.984375 -1.140625 Z "/>
</g>
<g id="glyph-0-9">
<path d="M 0.324219 0 L 0.324219 -2.59375 L 0.71875 -2.59375 L 0.71875 -2.199219 C 0.820312 -2.382812 0.914062 -2.503906 1 -2.5625 C 1.085938 -2.621094 1.179688 -2.652344 1.28125 -2.652344 C 1.429688 -2.652344 1.582031 -2.605469 1.734375 -2.507812 L 1.582031 -2.101562 C 1.476562 -2.164062 1.367188 -2.195312 1.257812 -2.195312 C 1.164062 -2.195312 1.078125 -2.167969 1 -2.109375 C 0.925781 -2.054688 0.871094 -1.972656 0.835938 -1.871094 C 0.789062 -1.714844 0.765625 -1.542969 0.765625 -1.359375 L 0.765625 0 Z "/>
</g>
<g id="glyph-0-10">
<path d="M 0.226562 -1.148438 L 0.671875 -1.1875 C 0.691406 -1.011719 0.742188 -0.863281 0.820312 -0.75 C 0.894531 -0.632812 1.015625 -0.539062 1.179688 -0.46875 C 1.34375 -0.398438 1.523438 -0.363281 1.726562 -0.363281 C 1.910156 -0.363281 2.070312 -0.390625 2.207031 -0.445312 C 2.34375 -0.5 2.449219 -0.570312 2.515625 -0.664062 C 2.582031 -0.757812 2.617188 -0.859375 2.617188 -0.972656 C 2.617188 -1.085938 2.585938 -1.183594 2.519531 -1.265625 C 2.453125 -1.351562 2.347656 -1.421875 2.195312 -1.476562 C 2.101562 -1.515625 1.890625 -1.574219 1.558594 -1.652344 C 1.230469 -1.730469 1 -1.804688 0.867188 -1.875 C 0.699219 -1.964844 0.570312 -2.074219 0.488281 -2.207031 C 0.402344 -2.339844 0.359375 -2.488281 0.359375 -2.652344 C 0.359375 -2.835938 0.414062 -3.003906 0.515625 -3.160156 C 0.617188 -3.316406 0.765625 -3.4375 0.964844 -3.519531 C 1.160156 -3.597656 1.378906 -3.640625 1.621094 -3.640625 C 1.886719 -3.640625 2.121094 -3.597656 2.324219 -3.511719 C 2.527344 -3.425781 2.679688 -3.300781 2.789062 -3.132812 C 2.898438 -2.96875 2.957031 -2.78125 2.964844 -2.570312 L 2.511719 -2.535156 C 2.488281 -2.761719 2.40625 -2.933594 2.265625 -3.050781 C 2.125 -3.164062 1.914062 -3.222656 1.640625 -3.222656 C 1.355469 -3.222656 1.144531 -3.171875 1.015625 -3.066406 C 0.882812 -2.960938 0.816406 -2.832031 0.816406 -2.6875 C 0.816406 -2.558594 0.863281 -2.453125 0.957031 -2.367188 C 1.046875 -2.285156 1.285156 -2.199219 1.671875 -2.113281 C 2.054688 -2.027344 2.320312 -1.949219 2.464844 -1.882812 C 2.671875 -1.789062 2.824219 -1.667969 2.925781 -1.519531 C 3.023438 -1.371094 3.074219 -1.203125 3.074219 -1.011719 C 3.074219 -0.820312 3.019531 -0.640625 2.910156 -0.472656 C 2.800781 -0.304688 2.644531 -0.171875 2.441406 -0.078125 C 2.234375 0.015625 2.007812 0.0625 1.75 0.0625 C 1.425781 0.0625 1.15625 0.015625 0.9375 -0.0820312 C 0.71875 -0.175781 0.546875 -0.316406 0.421875 -0.507812 C 0.296875 -0.695312 0.230469 -0.910156 0.226562 -1.148438 Z "/>
</g>
<g id="glyph-0-11">
<path d="M 0.152344 -0.773438 L 0.589844 -0.84375 C 0.613281 -0.667969 0.679688 -0.535156 0.792969 -0.441406 C 0.902344 -0.347656 1.058594 -0.304688 1.257812 -0.304688 C 1.460938 -0.304688 1.609375 -0.34375 1.710938 -0.425781 C 1.804688 -0.507812 1.855469 -0.605469 1.855469 -0.714844 C 1.855469 -0.816406 1.8125 -0.894531 1.726562 -0.949219 C 1.664062 -0.988281 1.515625 -1.039062 1.277344 -1.097656 C 0.953125 -1.179688 0.730469 -1.25 0.605469 -1.308594 C 0.480469 -1.371094 0.386719 -1.453125 0.324219 -1.554688 C 0.257812 -1.660156 0.226562 -1.777344 0.226562 -1.90625 C 0.226562 -2.019531 0.253906 -2.125 0.304688 -2.226562 C 0.359375 -2.324219 0.429688 -2.40625 0.523438 -2.46875 C 0.589844 -2.519531 0.683594 -2.5625 0.800781 -2.597656 C 0.921875 -2.632812 1.046875 -2.652344 1.179688 -2.652344 C 1.386719 -2.652344 1.5625 -2.621094 1.71875 -2.5625 C 1.871094 -2.503906 1.984375 -2.425781 2.058594 -2.324219 C 2.132812 -2.226562 2.183594 -2.089844 2.210938 -1.921875 L 1.78125 -1.867188 C 1.761719 -2 1.703125 -2.101562 1.609375 -2.179688 C 1.515625 -2.253906 1.382812 -2.289062 1.214844 -2.289062 C 1.011719 -2.289062 0.867188 -2.257812 0.78125 -2.191406 C 0.695312 -2.125 0.652344 -2.046875 0.652344 -1.957031 C 0.652344 -1.898438 0.667969 -1.847656 0.707031 -1.800781 C 0.742188 -1.753906 0.796875 -1.714844 0.875 -1.683594 C 0.917969 -1.667969 1.046875 -1.632812 1.261719 -1.570312 C 1.574219 -1.488281 1.789062 -1.421875 1.914062 -1.367188 C 2.035156 -1.316406 2.132812 -1.238281 2.203125 -1.136719 C 2.273438 -1.035156 2.308594 -0.910156 2.308594 -0.761719 C 2.308594 -0.613281 2.265625 -0.476562 2.179688 -0.347656 C 2.09375 -0.21875 1.96875 -0.117188 1.808594 -0.046875 C 1.648438 0.0234375 1.464844 0.0585938 1.261719 0.0585938 C 0.925781 0.0585938 0.667969 -0.0117188 0.492188 -0.152344 C 0.316406 -0.292969 0.203125 -0.5 0.152344 -0.773438 Z "/>
</g>
<g id="glyph-0-12">
<path d="M 0.164062 -1.296875 C 0.164062 -1.777344 0.300781 -2.132812 0.566406 -2.363281 C 0.789062 -2.554688 1.0625 -2.652344 1.382812 -2.652344 C 1.738281 -2.652344 2.03125 -2.535156 2.257812 -2.300781 C 2.480469 -2.066406 2.59375 -1.746094 2.59375 -1.332031 C 2.59375 -1 2.546875 -0.738281 2.445312 -0.546875 C 2.34375 -0.355469 2.199219 -0.207031 2.007812 -0.101562 C 1.816406 0.00390625 1.609375 0.0585938 1.382812 0.0585938 C 1.019531 0.0585938 0.726562 -0.0585938 0.5 -0.289062 C 0.277344 -0.523438 0.164062 -0.859375 0.164062 -1.296875 M 0.617188 -1.296875 C 0.617188 -0.964844 0.691406 -0.714844 0.835938 -0.550781 C 0.980469 -0.386719 1.164062 -0.304688 1.382812 -0.304688 C 1.601562 -0.304688 1.78125 -0.386719 1.925781 -0.550781 C 2.070312 -0.71875 2.144531 -0.972656 2.144531 -1.3125 C 2.144531 -1.632812 2.070312 -1.875 1.925781 -2.039062 C 1.78125 -2.203125 1.597656 -2.289062 1.382812 -2.289062 C 1.164062 -2.289062 0.980469 -2.207031 0.835938 -2.039062 C 0.691406 -1.875 0.617188 -1.628906 0.617188 -1.296875 Z "/>
</g>
<g id="glyph-0-13">
<path d="M 0.328125 0 L 0.328125 -2.59375 L 0.726562 -2.59375 L 0.726562 -2.222656 C 0.914062 -2.507812 1.191406 -2.652344 1.550781 -2.652344 C 1.707031 -2.652344 1.851562 -2.625 1.980469 -2.566406 C 2.113281 -2.511719 2.210938 -2.4375 2.273438 -2.347656 C 2.339844 -2.253906 2.386719 -2.148438 2.414062 -2.023438 C 2.429688 -1.941406 2.4375 -1.796875 2.4375 -1.59375 L 2.4375 0 L 1.996094 0 L 1.996094 -1.578125 C 1.996094 -1.757812 1.980469 -1.890625 1.945312 -1.980469 C 1.910156 -2.066406 1.851562 -2.136719 1.765625 -2.191406 C 1.675781 -2.242188 1.574219 -2.269531 1.457031 -2.269531 C 1.269531 -2.269531 1.109375 -2.210938 0.972656 -2.09375 C 0.835938 -1.972656 0.769531 -1.75 0.769531 -1.414062 L 0.769531 0 Z "/>
</g>
<g id="glyph-0-14">
<path d="M 0.371094 0 L 0.371094 -3.578125 L 1.085938 -3.578125 L 1.929688 -1.046875 C 2.007812 -0.808594 2.066406 -0.632812 2.101562 -0.515625 C 2.144531 -0.644531 2.207031 -0.835938 2.292969 -1.089844 L 3.148438 -3.578125 L 3.785156 -3.578125 L 3.785156 0 L 3.328125 0 L 3.328125 -2.996094 L 2.289062 0 L 1.863281 0 L 0.828125 -3.046875 L 0.828125 0 Z "/>
</g>
<g id="glyph-0-15">
<path d="M 1.410156 0 L 0.0234375 -3.578125 L 0.535156 -3.578125 L 1.464844 -0.980469 C 1.539062 -0.769531 1.601562 -0.574219 1.652344 -0.394531 C 1.707031 -0.589844 1.773438 -0.785156 1.84375 -0.980469 L 2.8125 -3.578125 L 3.296875 -3.578125 L 1.894531 0 Z "/>
</g>
<g id="glyph-0-16">
<path d="M 0.386719 0 L 0.386719 -3.578125 L 1.734375 -3.578125 C 1.972656 -3.578125 2.15625 -3.566406 2.28125 -3.546875 C 2.457031 -3.515625 2.601562 -3.460938 2.722656 -3.378906 C 2.839844 -3.296875 2.9375 -3.179688 3.007812 -3.03125 C 3.082031 -2.882812 3.117188 -2.722656 3.117188 -2.542969 C 3.117188 -2.238281 3.019531 -1.980469 2.828125 -1.769531 C 2.632812 -1.558594 2.285156 -1.453125 1.777344 -1.453125 L 0.859375 -1.453125 L 0.859375 0 L 0.386719 0 M 0.859375 -1.878906 L 1.785156 -1.878906 C 2.089844 -1.878906 2.308594 -1.933594 2.4375 -2.046875 C 2.566406 -2.164062 2.628906 -2.324219 2.628906 -2.53125 C 2.628906 -2.679688 2.589844 -2.808594 2.515625 -2.914062 C 2.441406 -3.019531 2.339844 -3.089844 2.21875 -3.125 C 2.136719 -3.144531 1.988281 -3.15625 1.773438 -3.15625 L 0.859375 -3.15625 Z "/>
</g>
</g>
</defs>
<g fill="rgb(87.843137%, 87.843137%, 87.843137%)" fill-opacity="1">
<use xlink:href="#glyph-0-0" x="30" y="24.526367"/>
<use xlink:href="#glyph-0-1" x="33" y="24.526367"/>
<use xlink:href="#glyph-0-2" x="36" y="24.526367"/>
<use xlink:href="#glyph-0-3" x="37" y="24.526367"/>
<use xlink:href="#glyph-0-4" x="41" y="24.526367"/>
<use xlink:href="#glyph-0-5" x="44" y="24.526367"/>
<use xlink:href="#glyph-0-6" x="47" y="24.526367"/>
<use xlink:href="#glyph-0-7" x="50" y="24.526367"/>
<use xlink:href="#glyph-0-8" x="51" y="24.526367"/>
<use xlink:href="#glyph-0-9" x="54" y="24.526367"/>
<use xlink:href="#glyph-0-2" x="56" y="24.526367"/>
<use xlink:href="#glyph-0-10" x="57" y="24.526367"/>
<use xlink:href="#glyph-0-4" x="60" y="24.526367"/>
<use xlink:href="#glyph-0-8" x="63" y="24.526367"/>
<use xlink:href="#glyph-0-11" x="66" y="24.526367"/>
<use xlink:href="#glyph-0-12" x="69" y="24.526367"/>
<use xlink:href="#glyph-0-13" x="72" y="24.526367"/>
<use xlink:href="#glyph-0-2" x="75" y="24.526367"/>
<use xlink:href="#glyph-0-14" x="76" y="24.526367"/>
<use xlink:href="#glyph-0-15" x="80" y="24.526367"/>
<use xlink:href="#glyph-0-16" x="83" y="24.526367"/>
</g>
</svg>
