<?xml version="1.0" encoding="UTF-8"?>
<svg xmlns="http://www.w3.org/2000/svg" xmlns:xlink="http://www.w3.org/1999/xlink" width="854" height="480" viewBox="0 0 854 480">
<defs>
<g>
<g id="glyph-0-0">
<path d="M 10.226562 0 L 1.074219 0 L 1.074219 -1.335938 C 1.25 -1.539062 1.492188 -1.761719 1.804688 -2.015625 C 2.117188 -2.265625 2.492188 -2.535156 2.921875 -2.828125 C 3.179688 -3.003906 3.492188 -3.195312 3.859375 -3.402344 C 4.222656 -3.613281 4.636719 -3.839844 5.097656 -4.085938 C 5.613281 -4.359375 6.007812 -4.601562 6.285156 -4.808594 C 6.5625 -5.015625 6.8125 -5.273438 7.039062 -5.578125 C 7.191406 -5.78125 7.3125 -6.035156 7.402344 -6.335938 C 7.492188 -6.636719 7.539062 -7.070312 7.539062 -7.628906 C 7.539062 -8.441406 7.320312 -9.039062 6.882812 -9.417969 C 6.449219 -9.800781 5.890625 -9.988281 5.203125 -9.992188 C 4.78125 -9.988281 4.382812 -9.90625 4.003906 -9.742188 C 3.625 -9.574219 3.34375 -9.34375 3.15625 -9.054688 C 3.199219 -8.84375 3.257812 -8.597656 3.324219 -8.3125 C 3.394531 -8.023438 3.429688 -7.742188 3.429688 -7.46875 C 3.429688 -7.222656 3.324219 -7.003906 3.121094 -6.8125 C 2.914062 -6.621094 2.609375 -6.523438 2.207031 -6.523438 C 1.882812 -6.523438 1.632812 -6.636719 1.453125 -6.859375 C 1.28125 -7.085938 1.191406 -7.386719 1.191406 -7.765625 C 1.191406 -8.113281 1.289062 -8.46875 1.484375 -8.824219 C 1.679688 -9.179688 1.960938 -9.503906 2.324219 -9.804688 C 2.683594 -10.097656 3.125 -10.335938 3.652344 -10.515625 C 4.179688 -10.699219 4.75 -10.789062 5.359375 -10.789062 C 6.695312 -10.789062 7.753906 -10.492188 8.539062 -9.898438 C 9.324219 -9.304688 9.71875 -8.507812 9.71875 -7.511719 C 9.71875 -7.039062 9.648438 -6.605469 9.507812 -6.214844 C 9.367188 -5.824219 9.140625 -5.480469 8.828125 -5.183594 C 8.484375 -4.851562 8.078125 -4.566406 7.617188 -4.328125 C 7.15625 -4.089844 6.449219 -3.761719 5.5 -3.339844 C 4.929688 -3.085938 4.40625 -2.820312 3.914062 -2.542969 C 3.429688 -2.265625 3.027344 -2 2.714844 -1.738281 L 10.226562 -1.738281 Z "/>
</g>
<g id="glyph-0-1">
<path d="M 10.03125 -9.121094 C 10.445312 -8.621094 10.757812 -8.03125 10.960938 -7.359375 C 11.167969 -6.683594 11.269531 -5.980469 11.269531 -5.242188 C 11.269531 -4.359375 11.140625 -3.566406 10.890625 -2.867188 C 10.632812 -2.167969 10.285156 -1.585938 9.84375 -1.125 C 9.386719 -0.648438 8.847656 -0.289062 8.222656 -0.046875 C 7.597656 0.191406 6.902344 0.3125 6.132812 0.3125 C 5.292969 0.3125 4.542969 0.171875 3.886719 -0.109375 C 3.230469 -0.386719 2.695312 -0.773438 2.285156 -1.257812 C 1.855469 -1.765625 1.535156 -2.363281 1.324219 -3.042969 C 1.113281 -3.722656 1.007812 -4.457031 1.007812 -5.242188 C 1.007812 -6.019531 1.109375 -6.730469 1.3125 -7.382812 C 1.519531 -8.035156 1.839844 -8.625 2.273438 -9.148438 C 2.691406 -9.65625 3.230469 -10.058594 3.886719 -10.351562 C 4.542969 -10.644531 5.296875 -10.789062 6.140625 -10.789062 C 7.035156 -10.789062 7.800781 -10.640625 8.4375 -10.34375 C 9.074219 -10.042969 9.605469 -9.636719 10.03125 -9.121094 M 9.109375 -5.242188 C 9.109375 -6.792969 8.847656 -7.996094 8.316406 -8.847656 C 7.785156 -9.699219 7.0625 -10.125 6.152344 -10.125 C 5.226562 -10.125 4.5 -9.699219 3.964844 -8.847656 C 3.429688 -7.996094 3.164062 -6.792969 3.164062 -5.242188 C 3.164062 -3.773438 3.417969 -2.589844 3.929688 -1.695312 C 4.441406 -0.800781 5.175781 -0.351562 6.132812 -0.351562 C 7.089844 -0.351562 7.824219 -0.800781 8.339844 -1.695312 C 8.855469 -2.589844 9.109375 -3.773438 9.109375 -5.242188 Z "/>
</g>
<g id="glyph-0-2">
<path d="M 7.898438 0 L 1.320312 0 L 1.320312 -0.695312 C 1.515625 -0.707031 1.816406 -0.734375 2.230469 -0.777344 C 2.644531 -0.820312 2.929688 -0.863281 3.085938 -0.90625 C 3.289062 -0.972656 3.441406 -1.078125 3.550781 -1.226562 C 3.65625 -1.371094 3.710938 -1.59375 3.710938 -1.882812 L 3.710938 -8.742188 L 1.28125 -8.742188 L 1.28125 -9.5625 L 1.816406 -9.5625 C 2.519531 -9.5625 3.148438 -9.691406 3.707031 -9.953125 C 4.261719 -10.210938 4.660156 -10.492188 4.902344 -10.789062 L 5.710938 -10.789062 C 5.695312 -10.367188 5.671875 -9.875 5.65625 -9.304688 C 5.632812 -8.742188 5.625 -8.234375 5.625 -7.78125 L 5.625 -1.992188 C 5.625 -1.765625 5.675781 -1.5625 5.777344 -1.382812 C 5.878906 -1.203125 6.023438 -1.070312 6.210938 -0.984375 C 6.378906 -0.914062 6.65625 -0.851562 7.039062 -0.789062 C 7.425781 -0.734375 7.710938 -0.699219 7.898438 -0.695312 Z "/>
</g>
</g>
</defs>
<g fill="rgb(95.686275%, 63.529412%, 38.039216%)" fill-opacity="1">
<use xlink:href="#glyph-0-0" x="30" y="38.339844"/>
<use xlink:href="#glyph-0-1" x="41" y="38.339844"/>
<use xlink:href="#glyph-0-2" x="53" y="38.339844"/>
<use xlink:href="#glyph-0-1" x="62" y="38.339844"/>
</g>
</svg>
